{
    "asset" : {
        "generator" : "Khronos glTF Blender I/O v1.7.17",
        "version" : "2.0"
    },
    "scene" : 0,
    "scenes" : [
        {
            "name" : "Scene",
            "nodes" : [
                0,
                4
            ]
        }
    ],
    "nodes" : [
        {
            "mesh" : 0,
            "name" : "Floor",
            "scale" : [
                10,
                10,
                10
            ]
        },
        {
            "mesh" : 1,
            "name" : "SculptureCube0",
            "rotation" : [
                -0.25002336502075195,
                0.8489624857902527,
                -0.41529518365859985,
                0.21043024957180023
            ],
            "scale" : [
                0.5798726081848145,
                0.6116381287574768,
                0.5966277122497559
            ],
            "translation" : [
                0.15044283866882324,
                0.0014312267303466797,
                0.11262714117765427
            ]
        },
        {
            "mesh" : 2,
            "name" : "SculptureCube1",
            "rotation" : [
                -0.8586379885673523,
                0.3980270326137543,
                0.2187507152557373,
                0.2376207709312439
            ],
            "scale" : [
                0.5967468619346619,
                0.5797223448753357,
                0.6116642355918884
            ],
            "translation" : [
                -0.2304752916097641,
                -0.02113783359527588,
                -0.12028507888317108
            ]
        },
        {
            "mesh" : 3,
            "name" : "SculptureCube2",
            "rotation" : [
                -0.04001212865114212,
                0.5948395729064941,
                0.4492643475532532,
                0.6653769016265869
            ],
            "scale" : [
                0.611638069152832,
                0.5966276526451111,
                0.5798726081848145
            ],
            "translation" : [
                0.16785091161727905,
                -0.0021665096282958984,
                -0.3952879309654236
            ]
        },
        {
            "children" : [
                1,
                2,
                3
            ],
            "name" : "Sculpture",
            "scale" : [
                1.8899632692337036,
                1.5127304792404175,
                1.6918452978134155
            ],
            "translation" : [
                0,
                1.4854555130004883,
                -0.23319949209690094
            ]
        }
    ],
    "materials" : [
        {
            "doubleSided" : true,
            "name" : "Floor",
            "pbrMetallicRoughness" : {
                "baseColorFactor" : [
                    0.048756346106529236,
                    0.048756346106529236,
                    0.048756346106529236,
                    1
                ],
                "metallicFactor" : 0,
                "roughnessFactor" : 0.30000001192092896
            }
        },
        {
            "doubleSided" : true,
            "name" : "Steel",
            "pbrMetallicRoughness" : {
                "metallicFactor" : 0,
                "roughnessFactor" : 0.5
            }
        }
    ],
    "meshes" : [
        {
            "name" : "FloorPlane",
            "primitives" : [
                {
                    "attributes" : {
                        "POSITION" : 0,
                        "NORMAL" : 1,
                        "TEXCOORD_0" : 2
                    },
                    "indices" : 3,
                    "material" : 0
                }
            ]
        },
        {
            "name" : "SculptureCube0Plane",
            "primitives" : [
                {
                    "attributes" : {
                        "POSITION" : 4,
                        "NORMAL" : 5,
                        "TEXCOORD_0" : 6
                    },
                    "indices" : 7,
                    "material" : 1
                }
            ]
        },
        {
            "name" : "SculptureCube1Plane.001",
            "primitives" : [
                {
                    "attributes" : {
                        "POSITION" : 8,
                        "NORMAL" : 9,
                        "TEXCOORD_0" : 10
                    },
                    "indices" : 11,
                    "material" : 1
                }
            ]
        },
        {
            "name" : "SculptureCube2Plane",
            "primitives" : [
                {
                    "attributes" : {
                        "POSITION" : 12,
                        "NORMAL" : 13,
                        "TEXCOORD_0" : 14
                    },
                    "indices" : 15,
                    "material" : 1
                }
            ]
        }
    ],
    "accessors" : [
        {
            "bufferView" : 0,
            "componentType" : 5126,
            "count" : 4,
            "max" : [
                12,
                0,
                12
            ],
            "min" : [
                -12,
                0,
                -12
            ],
            "type" : "VEC3"
        },
        {
            "bufferView" : 1,
            "componentType" : 5126,
            "count" : 4,
            "type" : "VEC3"
        },
        {
            "bufferView" : 2,
            "componentType" : 5126,
            "count" : 4,
            "type" : "VEC2"
        },
        {
            "bufferView" : 3,
            "componentType" : 5123,
            "count" : 6,
            "type" : "SCALAR"
        },
        {
            "bufferView" : 4,
            "componentType" : 5126,
            "count" : 104,
            "max" : [
                0.6000000834465027,
                0.06999999284744263,
                1.899999976158142
            ],
            "min" : [
                -0.6000000834465027,
                -0.06999999284744263,
                -1.899999976158142
            ],
            "type" : "VEC3"
        },
        {
            "bufferView" : 5,
            "componentType" : 5126,
            "count" : 104,
            "type" : "VEC3"
        },
        {
            "bufferView" : 6,
            "componentType" : 5126,
            "count" : 104,
            "type" : "VEC2"
        },
        {
            "bufferView" : 7,
            "componentType" : 5123,
            "count" : 132,
            "type" : "SCALAR"
        },
        {
            "bufferView" : 8,
            "componentType" : 5126,
            "count" : 104,
            "max" : [
                0.6000000238418579,
                0.07000000029802322,
                1.899999976158142
            ],
            "min" : [
                -0.6000000238418579,
                -0.07000000029802322,
                -1.899999976158142
            ],
            "type" : "VEC3"
        },
        {
            "bufferView" : 9,
            "componentType" : 5126,
            "count" : 104,
            "type" : "VEC3"
        },
        {
            "bufferView" : 10,
            "componentType" : 5126,
            "count" : 104,
            "type" : "VEC2"
        },
        {
            "bufferView" : 11,
            "componentType" : 5123,
            "count" : 132,
            "type" : "SCALAR"
        },
        {
            "bufferView" : 12,
            "componentType" : 5126,
            "count" : 104,
            "max" : [
                0.5999999642372131,
                0.06999999284744263,
                1.8999998569488525
            ],
            "min" : [
                -0.5999999642372131,
                -0.06999999284744263,
                -1.8999998569488525
            ],
            "type" : "VEC3"
        },
        {
            "bufferView" : 13,
            "componentType" : 5126,
            "count" : 104,
            "type" : "VEC3"
        },
        {
            "bufferView" : 14,
            "componentType" : 5126,
            "count" : 104,
            "type" : "VEC2"
        },
        {
            "bufferView" : 15,
            "componentType" : 5123,
            "count" : 132,
            "type" : "SCALAR"
        }
    ],
    "bufferViews" : [
        {
            "buffer" : 0,
            "byteLength" : 48,
            "byteOffset" : 0
        },
        {
            "buffer" : 0,
            "byteLength" : 48,
            "byteOffset" : 48
        },
        {
            "buffer" : 0,
            "byteLength" : 32,
            "byteOffset" : 96
        },
        {
            "buffer" : 0,
            "byteLength" : 12,
            "byteOffset" : 128
        },
        {
            "buffer" : 0,
            "byteLength" : 1248,
            "byteOffset" : 140
        },
        {
            "buffer" : 0,
            "byteLength" : 1248,
            "byteOffset" : 1388
        },
        {
            "buffer" : 0,
            "byteLength" : 832,
            "byteOffset" : 2636
        },
        {
            "buffer" : 0,
            "byteLength" : 264,
            "byteOffset" : 3468
        },
        {
            "buffer" : 0,
            "byteLength" : 1248,
            "byteOffset" : 3732
        },
        {
            "buffer" : 0,
            "byteLength" : 1248,
            "byteOffset" : 4980
        },
        {
            "buffer" : 0,
            "byteLength" : 832,
            "byteOffset" : 6228
        },
        {
            "buffer" : 0,
            "byteLength" : 264,
            "byteOffset" : 7060
        },
        {
            "buffer" : 0,
            "byteLength" : 1248,
            "byteOffset" : 7324
        },
        {
            "buffer" : 0,
            "byteLength" : 1248,
            "byteOffset" : 8572
        },
        {
            "buffer" : 0,
            "byteLength" : 832,
            "byteOffset" : 9820
        },
        {
            "buffer" : 0,
            "byteLength" : 264,
            "byteOffset" : 10652
        }
    ],
    "buffers" : [
        {
            "byteLength" : 10916,
            "uri" : "data:application/octet-stream;base64,"
        }
    ]
}
